<svg xmlns="http://www.w3.org/2000/svg" xmlns:xlink="http://www.w3.org/1999/xlink" style="margin:auto;background:#f1f2f3;display:block;z-index:1;position:relative" preserveAspectRatio="none" viewBox="0 0 3000 2000"><g transform="translate(1500,1000) scale(-1,1) translate(-1500,-1000)"><defs><linearGradient id="lg-0.14916289594755927" x1="0" x2="0" y1="0" y2="1"><stop stop-color="#0b3075" offset="0.3"/><stop stop-color="#105edd" offset="0.6499999999999999"/><stop stop-color="#105edd" offset="1"/></linearGradient><linearGradient id="fg-lg-0.14916289594755927" x1="0" x2="0" y1="0" y2="1"><stop stop-color="#0b3075" stop-opacity="1" offset="0.3"/><stop stop-color="#105edd" stop-opacity="0.66" offset="0.6499999999999999"/><stop stop-color="#105edd" stop-opacity="0" offset="1"/></linearGradient><style type="text/css">
  path { fill: none; stroke: #4a99dd; stroke-width: 4px }
</style></defs><rect x="0" y="0" width="3000" height="2000" fill="url(#lg-0.14916289594755927)"/><path d="M0 600 L-25950 2000"/><path d="M23.076923076923077 600 L-25527.69230769231 2000"/><path d="M46.15384615384615 600 L-25105.384615384617 2000"/><path d="M69.23076923076923 600 L-24683.076923076922 2000"/><path d="M92.3076923076923 600 L-24260.76923076923 2000"/><path d="M115.38461538461539 600 L-23838.46153846154 2000"/><path d="M138.46153846153845 600 L-23416.153846153848 2000"/><path d="M161.53846153846155 600 L-22993.846153846152 2000"/><path d="M184.6153846153846 600 L-22571.53846153846 2000"/><path d="M207.69230769230768 600 L-22149.23076923077 2000"/><path d="M230.76923076923077 600 L-21726.923076923078 2000"/><path d="M253.84615384615384 600 L-21304.615384615383 2000"/><path d="M276.9230769230769 600 L-20882.30769230769 2000"/><path d="M300 600 L-20460 2000"/><path d="M323.0769230769231 600 L-20037.69230769231 2000"/><path d="M346.15384615384613 600 L-19615.384615384617 2000"/><path d="M369.2307692307692 600 L-19193.076923076922 2000"/><path d="M392.3076923076923 600 L-18770.76923076923 2000"/><path d="M415.38461538461536 600 L-18348.46153846154 2000"/><path d="M438.46153846153845 600 L-17926.153846153844 2000"/><path d="M461.53846153846155 600 L-17503.846153846156 2000"/><path d="M484.61538461538464 600 L-17081.53846153846 2000"/><path d="M507.6923076923077 600 L-16659.23076923077 2000"/><path d="M530.7692307692307 600 L-16236.923076923076 2000"/><path d="M553.8461538461538 600 L-15814.615384615385 2000"/><path d="M576.9230769230769 600 L-15392.307692307691 2000"/><path d="M600 600 L-14970 2000"/><path d="M623.0769230769231 600 L-14547.692307692309 2000"/><path d="M646.1538461538462 600 L-14125.384615384615 2000"/><path d="M669.2307692307693 600 L-13703.076923076924 2000"/><path d="M692.3076923076923 600 L-13280.76923076923 2000"/><path d="M715.3846153846154 600 L-12858.461538461539 2000"/><path d="M738.4615384615385 600 L-12436.153846153846 2000"/><path d="M761.5384615384615 600 L-12013.846153846154 2000"/><path d="M784.6153846153846 600 L-11591.538461538461 2000"/><path d="M807.6923076923077 600 L-11169.23076923077 2000"/><path d="M830.7692307692307 600 L-10746.923076923076 2000"/><path d="M853.8461538461538 600 L-10324.615384615385 2000"/><path d="M876.9230769230769 600 L-9902.307692307691 2000"/><path d="M900 600 L-9480 2000"/><path d="M923.0769230769231 600 L-9057.692307692309 2000"/><path d="M946.1538461538462 600 L-8635.384615384617 2000"/><path d="M969.2307692307693 600 L-8213.076923076922 2000"/><path d="M992.3076923076923 600 L-7790.7692307692305 2000"/><path d="M1015.3846153846154 600 L-7368.461538461539 2000"/><path d="M1038.4615384615386 600 L-6946.153846153848 2000"/><path d="M1061.5384615384614 600 L-6523.846153846152 2000"/><path d="M1084.6153846153845 600 L-6101.538461538461 2000"/><path d="M1107.6923076923076 600 L-5679.2307692307695 2000"/><path d="M1130.7692307692307 600 L-5256.923076923078 2000"/><path d="M1153.8461538461538 600 L-4834.615384615383 2000"/><path d="M1176.923076923077 600 L-4412.3076923076915 2000"/><path d="M1200 600 L-3990 2000"/><path d="M1223.076923076923 600 L-3567.6923076923085 2000"/><path d="M1246.1538461538462 600 L-3145.384615384617 2000"/><path d="M1269.2307692307693 600 L-2723.076923076922 2000"/><path d="M1292.3076923076924 600 L-2300.7692307692305 2000"/><path d="M1315.3846153846155 600 L-1878.461538461539 2000"/><path d="M1338.4615384615386 600 L-1456.1538461538476 2000"/><path d="M1361.5384615384614 600 L-1033.8461538461524 2000"/><path d="M1384.6153846153845 600 L-611.538461538461 2000"/><path d="M1407.6923076923076 600 L-189.2307692307695 2000"/><path d="M1430.7692307692307 600 L233.07692307692196 2000"/><path d="M1453.8461538461538 600 L655.3846153846171 2000"/><path d="M1476.923076923077 600 L1077.6923076923085 2000"/><path d="M1500 600 L1500 2000"/><path d="M1523.076923076923 600 L1922.3076923076915 2000"/><path d="M1546.1538461538462 600 L2344.615384615383 2000"/><path d="M1569.2307692307693 600 L2766.923076923078 2000"/><path d="M1592.3076923076924 600 L3189.2307692307695 2000"/><path d="M1615.3846153846155 600 L3611.538461538461 2000"/><path d="M1638.4615384615386 600 L4033.8461538461524 2000"/><path d="M1661.5384615384614 600 L4456.153846153848 2000"/><path d="M1684.6153846153845 600 L4878.461538461539 2000"/><path d="M1707.6923076923076 600 L5300.7692307692305 2000"/><path d="M1730.7692307692307 600 L5723.076923076922 2000"/><path d="M1753.8461538461538 600 L6145.384615384617 2000"/><path d="M1776.923076923077 600 L6567.6923076923085 2000"/><path d="M1800 600 L6990 2000"/><path d="M1823.076923076923 600 L7412.307692307695 2000"/><path d="M1846.1538461538462 600 L7834.615384615383 2000"/><path d="M1869.2307692307693 600 L8256.923076923078 2000"/><path d="M1892.3076923076924 600 L8679.230769230766 2000"/><path d="M1915.3846153846155 600 L9101.538461538461 2000"/><path d="M1938.4615384615386 600 L9523.846153846156 2000"/><path d="M1961.5384615384614 600 L9946.153846153844 2000"/><path d="M1984.6153846153845 600 L10368.461538461539 2000"/><path d="M2007.6923076923076 600 L10790.769230769234 2000"/><path d="M2030.7692307692307 600 L11213.076923076922 2000"/><path d="M2053.846153846154 600 L11635.384615384617 2000"/><path d="M2076.923076923077 600 L12057.692307692305 2000"/><path d="M2100 600 L12480 2000"/><path d="M2123.076923076923 600 L12902.307692307695 2000"/><path d="M2146.153846153846 600 L13324.615384615383 2000"/><path d="M2169.230769230769 600 L13746.923076923078 2000"/><path d="M2192.3076923076924 600 L14169.230769230766 2000"/><path d="M2215.3846153846152 600 L14591.538461538461 2000"/><path d="M2238.4615384615386 600 L15013.846153846156 2000"/><path d="M2261.5384615384614 600 L15436.153846153844 2000"/><path d="M2284.6153846153848 600 L15858.461538461539 2000"/><path d="M2307.6923076923076 600 L16280.769230769234 2000"/><path d="M2330.769230769231 600 L16703.076923076922 2000"/><path d="M2353.846153846154 600 L17125.384615384617 2000"/><path d="M2376.923076923077 600 L17547.692307692305 2000"/><path d="M2400 600 L17970 2000"/><path d="M2423.076923076923 600 L18392.307692307695 2000"/><path d="M2446.153846153846 600 L18814.615384615383 2000"/><path d="M2469.230769230769 600 L19236.923076923078 2000"/><path d="M2492.3076923076924 600 L19659.230769230766 2000"/><path d="M2515.3846153846152 600 L20081.53846153846 2000"/><path d="M2538.4615384615386 600 L20503.846153846156 2000"/><path d="M2561.5384615384614 600 L20926.153846153844 2000"/><path d="M2584.6153846153848 600 L21348.46153846154 2000"/><path d="M2607.6923076923076 600 L21770.769230769234 2000"/><path d="M2630.769230769231 600 L22193.076923076922 2000"/><path d="M2653.846153846154 600 L22615.384615384617 2000"/><path d="M2676.923076923077 600 L23037.692307692305 2000"/><path d="M2700 600 L23460 2000"/><path d="M2723.076923076923 600 L23882.307692307695 2000"/><path d="M2746.153846153846 600 L24304.615384615383 2000"/><path d="M2769.230769230769 600 L24726.923076923078 2000"/><path d="M2792.3076923076924 600 L25149.230769230766 2000"/><path d="M2815.3846153846152 600 L25571.53846153846 2000"/><path d="M2838.4615384615386 600 L25993.846153846156 2000"/><path d="M2861.5384615384614 600 L26416.153846153844 2000"/><path d="M2884.6153846153848 600 L26838.46153846154 2000"/><path d="M2907.6923076923076 600 L27260.769230769234 2000"/><path d="M2930.769230769231 600 L27683.076923076922 2000"/><path d="M2953.846153846154 600 L28105.384615384617 2000"/><path d="M2976.923076923077 600 L28527.692307692305 2000"/><path d="M3000 600 L28950 2000"/><g><path d="M0 600 L3000 600"/><animateTransform attributeName="transform" type="translate" repeatCount="indefinite" calcMode="linear" keyTimes="0;1" values="0 0;0 10.603550295857989" begin="0s" dur="0.8333333333333334s"/></g><g><path d="M0 610.603550295858 L3000 610.603550295858"/><animateTransform attributeName="transform" type="translate" repeatCount="indefinite" calcMode="linear" keyTimes="0;1" values="0 0;0 21.207100591715978" begin="0s" dur="0.8333333333333334s"/></g><g><path d="M0 631.810650887574 L3000 631.810650887574"/><animateTransform attributeName="transform" type="translate" repeatCount="indefinite" calcMode="linear" keyTimes="0;1" values="0 0;0 31.810650887573967" begin="0s" dur="0.8333333333333334s"/></g><g><path d="M0 663.6213017751479 L3000 663.6213017751479"/><animateTransform attributeName="transform" type="translate" repeatCount="indefinite" calcMode="linear" keyTimes="0;1" values="0 0;0 42.414201183431956" begin="0s" dur="0.8333333333333334s"/></g><g><path d="M0 706.0355029585799 L3000 706.0355029585799"/><animateTransform attributeName="transform" type="translate" repeatCount="indefinite" calcMode="linear" keyTimes="0;1" values="0 0;0 53.01775147928994" begin="0s" dur="0.8333333333333334s"/></g><g><path d="M0 759.0532544378698 L3000 759.0532544378698"/><animateTransform attributeName="transform" type="translate" repeatCount="indefinite" calcMode="linear" keyTimes="0;1" values="0 0;0 63.62130177514793" begin="0s" dur="0.8333333333333334s"/></g><g><path d="M0 822.6745562130177 L3000 822.6745562130177"/><animateTransform attributeName="transform" type="translate" repeatCount="indefinite" calcMode="linear" keyTimes="0;1" values="0 0;0 74.22485207100591" begin="0s" dur="0.8333333333333334s"/></g><g><path d="M0 896.8994082840236 L3000 896.8994082840236"/><animateTransform attributeName="transform" type="translate" repeatCount="indefinite" calcMode="linear" keyTimes="0;1" values="0 0;0 84.8284023668639" begin="0s" dur="0.8333333333333334s"/></g><g><path d="M0 981.7278106508875 L3000 981.7278106508875"/><animateTransform attributeName="transform" type="translate" repeatCount="indefinite" calcMode="linear" keyTimes="0;1" values="0 0;0 95.43195266272188" begin="0s" dur="0.8333333333333334s"/></g><g><path d="M0 1077.1597633136093 L3000 1077.1597633136093"/><animateTransform attributeName="transform" type="translate" repeatCount="indefinite" calcMode="linear" keyTimes="0;1" values="0 0;0 106.03550295857987" begin="0s" dur="0.8333333333333334s"/></g><g><path d="M0 1183.1952662721892 L3000 1183.1952662721892"/><animateTransform attributeName="transform" type="translate" repeatCount="indefinite" calcMode="linear" keyTimes="0;1" values="0 0;0 116.63905325443785" begin="0s" dur="0.8333333333333334s"/></g><g><path d="M0 1299.834319526627 L3000 1299.834319526627"/><animateTransform attributeName="transform" type="translate" repeatCount="indefinite" calcMode="linear" keyTimes="0;1" values="0 0;0 127.24260355029585" begin="0s" dur="0.8333333333333334s"/></g><g><path d="M0 1427.0769230769229 L3000 1427.0769230769229"/><animateTransform attributeName="transform" type="translate" repeatCount="indefinite" calcMode="linear" keyTimes="0;1" values="0 0;0 137.84615384615384" begin="0s" dur="0.8333333333333334s"/></g><g><path d="M0 1564.9230769230767 L3000 1564.9230769230767"/><animateTransform attributeName="transform" type="translate" repeatCount="indefinite" calcMode="linear" keyTimes="0;1" values="0 0;0 148.44970414201183" begin="0s" dur="0.8333333333333334s"/></g><g><path d="M0 1713.3727810650885 L3000 1713.3727810650885"/><animateTransform attributeName="transform" type="translate" repeatCount="indefinite" calcMode="linear" keyTimes="0;1" values="0 0;0 159.0532544378698" begin="0s" dur="0.8333333333333334s"/></g><g><path d="M0 1872.4260355029583 L3000 1872.4260355029583"/><animateTransform attributeName="transform" type="translate" repeatCount="indefinite" calcMode="linear" keyTimes="0;1" values="0 0;0 169.6568047337278" begin="0s" dur="0.8333333333333334s"/></g><g><path d="M0 2042.082840236686 L3000 2042.082840236686"/><animateTransform attributeName="transform" type="translate" repeatCount="indefinite" calcMode="linear" keyTimes="0;1" values="0 0;0 180.26035502958578" begin="0s" dur="0.8333333333333334s"/></g><rect x="0" y="0" width="3000" height="2000" fill="url(#fg-lg-0.14916289594755927)"/></g></svg>